<svg xmlns="http://www.w3.org/2000/svg" version="1.1" xmlns:xlink="http://www.w3.org/1999/xlink" xmlns:svgjs="http://svgjs.com/svgjs" width="400" height="400"><svg id="SvgjsSvg1006" version="1.1" xmlns="http://www.w3.org/2000/svg" xmlns:xlink="http://www.w3.org/1999/xlink" width="400" height="400" viewBox="0, 0, 400,400"><g id="SvgjsG1005"><path id="SvgjsPath1004" d="M156.947 21.748 C 156.698 22.032,156.391 23.601,156.264 25.233 C 156.138 26.865,155.847 29.865,155.617 31.900 C 154.606 40.863,154.261 44.071,152.982 56.400 C 152.446 61.570,151.833 67.330,151.621 69.200 C 151.410 71.070,151.034 74.490,150.786 76.800 C 150.538 79.110,150.196 82.052,150.026 83.338 L 149.717 85.677 150.759 85.444 C 151.331 85.316,153.150 84.841,154.800 84.389 C 156.450 83.937,159.733 83.226,162.095 82.810 C 164.457 82.394,166.554 81.952,166.753 81.829 C 167.215 81.543,167.699 77.918,169.212 63.400 C 169.442 61.200,169.799 57.960,170.007 56.200 C 170.214 54.440,170.572 51.200,170.803 49.000 C 171.333 43.931,171.917 38.693,172.407 34.600 C 172.796 31.351,173.052 28.760,173.462 23.900 L 173.690 21.200 165.545 21.215 C 159.398 21.227,157.289 21.357,156.947 21.748 M137.800 149.169 C 134.828 149.555,130.657 150.614,128.800 151.453 C 124.248 153.511,122.700 154.385,120.000 156.423 C 102.295 169.784,99.044 194.642,112.772 211.695 C 117.194 217.188,182.511 282.000,183.625 282.000 C 184.730 282.000,251.940 215.026,255.075 210.800 C 258.043 206.799,259.744 203.122,262.105 195.600 C 262.682 193.761,262.678 181.420,262.099 179.600 C 261.854 178.830,261.430 177.390,261.156 176.400 C 256.804 160.674,241.373 149.125,224.600 149.039 C 211.868 148.974,204.809 152.325,192.869 164.106 C 183.883 172.971,183.329 172.974,174.413 164.204 C 164.414 154.368,160.511 151.930,151.171 149.681 C 148.705 149.088,140.765 148.783,137.800 149.169 M167.098 171.015 C 170.268 172.340,170.525 172.872,173.157 183.600 C 174.823 190.388,180.546 213.612,181.438 217.200 L 181.686 218.200 182.092 217.200 C 182.446 216.326,182.826 215.049,184.409 209.400 C 184.593 208.740,185.130 206.760,185.600 205.000 C 186.070 203.240,186.607 201.260,186.793 200.600 C 187.493 198.113,188.368 194.895,189.186 191.800 C 189.651 190.040,190.194 188.060,190.393 187.400 C 190.592 186.740,190.953 185.433,191.194 184.495 C 192.099 180.983,195.162 178.864,198.590 179.378 C 201.194 179.768,202.734 181.474,204.387 185.800 C 204.555 186.240,204.898 187.050,205.148 187.600 C 205.399 188.150,206.470 190.760,207.528 193.400 L 209.453 198.200 225.226 198.400 C 242.657 198.621,242.553 198.606,244.441 201.257 C 246.472 204.110,245.718 207.905,242.671 210.163 C 240.922 211.460,205.242 211.684,202.650 210.415 C 201.151 209.681,199.200 207.414,199.200 206.406 C 199.200 205.326,198.379 206.195,197.977 207.700 C 197.727 208.635,196.359 213.630,194.936 218.800 C 193.513 223.970,191.886 229.910,191.320 232.000 C 190.754 234.090,189.940 237.060,189.512 238.600 C 189.083 240.140,188.437 242.570,188.076 244.000 C 187.091 247.897,184.888 250.000,181.791 250.000 C 176.643 250.000,176.356 249.478,172.207 232.560 C 170.324 224.882,168.608 217.925,168.392 217.100 C 167.829 214.947,167.324 212.967,166.580 210.000 C 165.537 205.840,165.264 204.710,164.837 202.800 C 164.234 200.098,163.188 196.255,163.007 196.073 C 162.919 195.986,162.588 196.518,162.271 197.257 C 159.665 203.340,158.101 205.677,156.135 206.425 C 154.874 206.904,126.764 206.920,125.526 206.442 C 120.943 204.672,120.384 198.009,124.591 195.300 C 125.960 194.419,126.232 194.400,137.809 194.400 L 149.629 194.400 152.258 188.900 C 154.677 183.841,156.153 180.704,158.611 175.400 C 160.514 171.293,163.755 169.618,167.098 171.015 M275.693 185.600 C 275.693 186.370,275.775 186.685,275.876 186.300 C 275.976 185.915,275.976 185.285,275.876 184.900 C 275.775 184.515,275.693 184.830,275.693 185.600 M275.709 188.800 C 275.709 189.790,275.787 190.195,275.882 189.700 C 275.978 189.205,275.978 188.395,275.882 187.900 C 275.787 187.405,275.709 187.810,275.709 188.800 M150.023 316.665 C 150.517 320.456,151.561 329.962,152.980 343.600 C 154.289 356.187,154.248 355.808,155.610 368.000 C 155.844 370.090,156.136 373.150,156.261 374.800 C 156.580 379.037,156.033 378.800,165.494 378.800 L 173.690 378.800 173.457 376.100 C 173.219 373.339,172.736 368.672,172.009 362.100 C 171.784 360.065,171.431 356.825,171.224 354.900 C 171.018 352.975,170.648 349.600,170.402 347.400 C 170.157 345.200,169.801 341.960,169.611 340.200 C 169.421 338.440,169.161 336.100,169.033 335.000 C 168.905 333.900,168.516 330.300,168.168 327.000 C 167.135 317.212,167.788 318.218,161.800 317.182 C 160.260 316.916,157.290 316.253,155.200 315.710 C 153.110 315.167,151.022 314.634,150.559 314.526 C 149.753 314.337,149.731 314.426,150.023 316.665 " stroke="none" fill="#e45a77" fill-rule="evenodd"></path><path id="SvgjsPath1003" d="M173.400 94.410 C 161.582 95.920,152.635 98.036,146.104 100.865 C 145.172 101.269,144.224 101.600,143.999 101.600 C 143.774 101.600,143.277 101.769,142.895 101.976 C 142.513 102.182,140.282 103.258,137.938 104.366 C 116.224 114.629,98.110 132.755,87.937 154.400 C 86.851 156.710,85.791 158.913,85.581 159.295 C 85.372 159.677,85.200 160.174,85.200 160.399 C 85.200 160.624,84.855 161.572,84.433 162.504 C 79.322 173.806,76.487 194.809,78.015 210.058 C 79.034 220.221,82.150 233.194,84.847 238.495 C 85.041 238.877,85.200 239.364,85.200 239.577 C 85.200 240.232,88.805 247.824,90.814 251.400 C 102.978 273.051,123.201 290.680,145.394 298.978 C 150.921 301.045,151.591 301.257,157.400 302.788 C 191.490 311.768,229.415 302.063,255.759 277.618 C 263.691 270.259,270.276 261.894,276.085 251.800 C 294.050 220.582,293.890 177.870,275.695 147.578 C 275.093 146.575,274.067 144.865,273.417 143.778 C 272.079 141.543,268.759 136.820,267.222 134.968 C 266.660 134.290,265.840 133.275,265.400 132.712 C 261.851 128.176,255.150 121.563,249.600 117.121 C 246.683 114.787,240.547 110.400,240.199 110.400 C 240.048 110.400,239.446 110.061,238.862 109.647 C 223.875 99.022,193.195 91.880,173.400 94.410 M181.329 109.796 C 185.395 111.495,186.790 116.449,184.102 119.643 C 182.620 121.405,181.430 121.850,176.800 122.376 C 171.379 122.991,165.604 124.088,161.800 125.225 C 155.516 127.103,151.605 124.928,151.601 119.554 C 151.599 115.450,153.677 113.853,161.400 112.026 C 162.500 111.766,164.030 111.401,164.800 111.216 C 166.856 110.721,176.627 109.354,178.851 109.249 C 179.429 109.222,180.544 109.468,181.329 109.796 M206.294 112.077 C 212.622 113.661,214.579 120.552,209.631 123.827 C 203.282 128.029,193.134 120.906,196.831 114.842 C 198.766 111.668,201.486 110.873,206.294 112.077 M149.800 136.573 C 158.992 137.998,166.708 141.025,173.000 145.674 C 174.574 146.837,179.346 151.070,180.985 152.757 C 183.521 155.368,183.680 155.347,187.011 151.979 C 188.545 150.428,190.790 148.403,192.000 147.480 C 193.210 146.557,194.290 145.703,194.400 145.582 C 198.354 141.227,214.347 136.031,223.871 136.007 C 233.850 135.982,249.921 141.089,254.000 145.582 C 254.110 145.703,255.195 146.558,256.412 147.481 C 260.777 150.797,268.800 160.165,268.800 161.949 C 268.800 162.160,268.944 162.393,269.120 162.467 C 270.094 162.873,273.829 172.676,274.734 177.200 C 276.708 187.071,275.875 197.415,272.431 205.800 C 268.062 216.438,268.040 216.463,227.871 256.689 C 187.289 297.328,189.980 295.000,183.600 294.986 C 177.277 294.971,180.008 297.322,140.478 257.861 C 98.143 215.600,98.128 215.584,94.500 204.600 C 92.179 197.575,91.815 195.258,91.830 187.600 C 91.850 177.177,94.352 167.888,98.973 161.079 C 99.538 160.246,100.000 159.463,100.000 159.340 C 100.000 159.216,101.149 157.649,102.553 155.857 C 113.845 141.452,132.408 133.875,149.800 136.573 " stroke="none" fill="#fbe0e0" fill-rule="evenodd"></path><path id="SvgjsPath1002" d="M154.400 8.000 C 154.400 8.220,153.904 8.400,153.297 8.400 C 151.045 8.400,146.792 11.364,145.226 14.025 C 143.406 17.119,142.903 18.992,142.600 23.800 C 142.517 25.120,142.168 28.602,141.825 31.538 C 141.481 34.474,141.200 38.018,141.200 39.414 C 141.200 40.811,141.020 42.064,140.800 42.200 C 140.580 42.336,140.400 44.057,140.400 46.024 C 140.400 48.141,140.237 49.600,140.000 49.600 C 139.763 49.600,139.600 51.067,139.600 53.200 C 139.600 55.333,139.437 56.800,139.200 56.800 C 138.965 56.800,138.800 58.200,138.800 60.200 C 138.800 62.200,138.635 63.600,138.400 63.600 C 138.163 63.600,138.000 65.067,138.000 67.200 C 138.000 69.333,137.837 70.800,137.600 70.800 C 137.361 70.800,137.200 72.333,137.200 74.600 C 137.200 76.867,137.039 78.400,136.800 78.400 C 136.565 78.400,136.400 79.792,136.400 81.776 C 136.400 83.633,136.220 85.264,136.000 85.400 C 135.780 85.536,135.600 86.639,135.600 87.852 C 135.600 90.122,135.029 91.200,133.829 91.200 C 133.483 91.200,133.200 91.380,133.200 91.600 C 133.200 91.820,132.870 92.000,132.467 92.000 C 132.063 92.000,131.598 92.135,131.433 92.300 C 131.268 92.465,131.013 92.604,130.867 92.610 C 130.376 92.627,125.807 94.967,125.298 95.460 C 125.021 95.728,124.436 96.062,123.998 96.201 C 123.559 96.340,123.200 96.622,123.200 96.827 C 123.200 97.032,122.840 97.200,122.400 97.200 C 121.960 97.200,121.600 97.380,121.600 97.600 C 121.600 97.820,121.364 98.000,121.075 98.000 C 120.787 98.000,120.164 98.360,119.692 98.800 C 119.220 99.240,118.596 99.600,118.305 99.600 C 118.014 99.600,117.517 99.960,117.200 100.400 C 116.883 100.840,116.438 101.200,116.212 101.201 C 115.985 101.201,115.170 101.741,114.400 102.400 C 113.630 103.059,112.868 103.599,112.707 103.599 C 112.413 103.600,111.545 104.338,108.116 107.500 C 107.102 108.435,106.114 109.200,105.919 109.200 C 105.089 109.200,93.412 120.829,92.531 122.534 C 92.173 123.225,91.368 124.269,90.741 124.855 C 90.113 125.442,89.600 126.047,89.600 126.200 C 89.600 126.353,89.060 126.983,88.400 127.600 C 87.740 128.217,87.200 128.892,87.200 129.101 C 87.200 129.310,86.660 130.046,86.000 130.737 C 85.340 131.428,84.800 132.225,84.800 132.508 C 84.800 132.791,84.440 133.283,84.000 133.600 C 83.560 133.917,83.200 134.414,83.200 134.705 C 83.200 134.996,82.840 135.620,82.400 136.092 C 81.960 136.564,81.600 137.187,81.600 137.475 C 81.600 137.764,81.420 138.000,81.200 138.000 C 80.980 138.000,80.800 138.360,80.800 138.800 C 80.800 139.240,80.650 139.600,80.468 139.600 C 80.285 139.600,79.880 140.095,79.568 140.700 C 79.256 141.305,78.902 141.890,78.781 142.000 C 78.436 142.312,76.232 146.952,76.215 147.400 C 76.207 147.620,75.973 148.040,75.696 148.332 C 75.419 148.625,75.295 149.030,75.420 149.232 C 75.545 149.435,75.457 149.600,75.224 149.600 C 74.991 149.600,74.800 149.960,74.800 150.400 C 74.800 150.840,74.620 151.200,74.400 151.200 C 74.180 151.200,74.000 151.639,74.000 152.176 C 74.000 152.713,73.820 153.264,73.600 153.400 C 73.380 153.536,73.200 153.997,73.200 154.424 C 73.200 154.851,73.020 155.200,72.800 155.200 C 72.580 155.200,72.400 155.549,72.400 155.976 C 72.400 156.403,72.220 156.864,72.000 157.000 C 71.780 157.136,71.600 157.687,71.600 158.224 C 71.600 158.761,71.420 159.200,71.200 159.200 C 70.980 159.200,70.800 159.650,70.800 160.200 C 70.800 160.750,70.620 161.200,70.400 161.200 C 70.180 161.200,70.000 161.740,70.000 162.400 C 70.000 163.060,69.820 163.600,69.600 163.600 C 69.380 163.600,69.200 164.219,69.200 164.976 C 69.200 165.733,69.020 166.464,68.800 166.600 C 68.580 166.736,68.400 167.377,68.400 168.024 C 68.400 168.671,68.220 169.200,68.000 169.200 C 67.780 169.200,67.600 169.920,67.600 170.800 C 67.600 171.680,67.420 172.400,67.200 172.400 C 66.980 172.400,66.800 173.199,66.800 174.176 C 66.800 175.153,66.620 176.064,66.400 176.200 C 66.180 176.336,66.000 177.236,66.000 178.200 C 66.000 179.164,65.820 180.064,65.600 180.200 C 65.380 180.336,65.200 181.596,65.200 183.000 C 65.200 184.404,65.020 185.664,64.800 185.800 C 64.253 186.138,64.253 213.862,64.800 214.200 C 65.020 214.336,65.200 215.596,65.200 217.000 C 65.200 218.404,65.380 219.664,65.600 219.800 C 65.820 219.936,66.000 220.836,66.000 221.800 C 66.000 222.764,66.180 223.664,66.400 223.800 C 66.620 223.936,66.800 224.847,66.800 225.824 C 66.800 226.801,66.980 227.600,67.200 227.600 C 67.420 227.600,67.600 228.320,67.600 229.200 C 67.600 230.080,67.780 230.800,68.000 230.800 C 68.220 230.800,68.400 231.329,68.400 231.976 C 68.400 232.623,68.580 233.264,68.800 233.400 C 69.020 233.536,69.200 234.267,69.200 235.024 C 69.200 235.781,69.380 236.400,69.600 236.400 C 69.820 236.400,70.000 236.940,70.000 237.600 C 70.000 238.260,70.180 238.800,70.400 238.800 C 70.620 238.800,70.800 239.250,70.800 239.800 C 70.800 240.350,70.980 240.800,71.200 240.800 C 71.420 240.800,71.600 241.149,71.600 241.576 C 71.600 242.003,71.780 242.464,72.000 242.600 C 72.220 242.736,72.400 243.287,72.400 243.824 C 72.400 244.361,72.580 244.800,72.800 244.800 C 73.020 244.800,73.200 245.149,73.200 245.576 C 73.200 246.003,73.380 246.464,73.600 246.600 C 73.820 246.736,74.000 247.287,74.000 247.824 C 74.000 248.361,74.180 248.800,74.400 248.800 C 74.620 248.800,74.800 249.160,74.800 249.600 C 74.800 250.040,74.991 250.400,75.224 250.400 C 75.457 250.400,75.545 250.565,75.420 250.768 C 75.295 250.970,75.419 251.375,75.696 251.668 C 75.973 251.960,76.200 252.380,76.200 252.600 C 76.200 253.030,78.418 257.668,78.782 258.000 C 78.903 258.110,79.256 258.695,79.568 259.300 C 79.880 259.905,80.285 260.400,80.468 260.400 C 80.650 260.400,80.800 260.760,80.800 261.200 C 80.800 261.640,80.980 262.000,81.200 262.000 C 81.420 262.000,81.600 262.236,81.600 262.525 C 81.600 262.813,81.960 263.436,82.400 263.908 C 82.840 264.380,83.200 265.004,83.200 265.295 C 83.200 265.586,83.560 266.083,84.000 266.400 C 84.440 266.717,84.800 267.209,84.800 267.492 C 84.800 267.775,85.340 268.572,86.000 269.263 C 86.660 269.954,87.200 270.690,87.200 270.899 C 87.200 271.108,87.740 271.783,88.400 272.400 C 89.060 273.017,89.600 273.647,89.600 273.800 C 89.600 273.953,90.113 274.558,90.741 275.145 C 91.368 275.731,92.180 276.787,92.544 277.492 C 93.499 279.339,104.402 290.131,106.384 291.192 C 106.898 291.466,107.906 292.256,108.625 292.946 C 110.894 295.122,112.404 296.400,112.707 296.401 C 112.868 296.401,113.630 296.941,114.400 297.600 C 115.170 298.259,115.985 298.799,116.212 298.799 C 116.438 298.800,116.883 299.160,117.200 299.600 C 117.517 300.040,118.014 300.400,118.305 300.400 C 118.596 300.400,119.220 300.760,119.692 301.200 C 120.164 301.640,120.787 302.000,121.075 302.000 C 121.364 302.000,121.600 302.180,121.600 302.400 C 121.600 302.620,121.960 302.800,122.400 302.800 C 122.840 302.800,123.200 302.968,123.200 303.173 C 123.200 303.378,123.559 303.660,123.998 303.799 C 124.436 303.938,125.021 304.271,125.298 304.539 C 125.965 305.184,133.308 308.800,133.952 308.800 C 135.031 308.800,135.600 309.957,135.600 312.148 C 135.600 313.361,135.780 314.464,136.000 314.600 C 136.220 314.736,136.400 316.356,136.400 318.200 C 136.400 320.044,136.580 321.664,136.800 321.800 C 137.020 321.936,137.200 323.657,137.200 325.624 C 137.200 327.741,137.363 329.200,137.600 329.200 C 137.835 329.200,138.000 330.592,138.000 332.576 C 138.000 334.433,138.180 336.064,138.400 336.200 C 138.620 336.336,138.800 337.967,138.800 339.824 C 138.800 341.808,138.965 343.200,139.200 343.200 C 139.437 343.200,139.600 344.667,139.600 346.800 C 139.600 348.933,139.763 350.400,140.000 350.400 C 140.237 350.400,140.400 351.859,140.400 353.976 C 140.400 355.943,140.580 357.664,140.800 357.800 C 141.020 357.936,141.200 359.189,141.200 360.586 C 141.200 361.982,141.481 365.526,141.825 368.462 C 142.168 371.398,142.517 374.880,142.600 376.200 C 142.903 381.008,143.406 382.881,145.226 385.975 C 146.792 388.636,151.045 391.600,153.297 391.600 C 153.904 391.600,154.400 391.780,154.400 392.000 C 154.400 392.263,164.400 392.400,183.600 392.400 C 202.800 392.400,212.800 392.263,212.800 392.000 C 212.800 391.780,213.296 391.600,213.903 391.600 C 216.155 391.600,220.408 388.636,221.974 385.975 C 224.031 382.478,224.266 381.363,224.930 371.931 C 225.189 368.262,225.535 365.127,225.700 364.964 C 225.865 364.800,226.000 363.077,226.000 361.133 C 226.000 359.044,226.164 357.600,226.400 357.600 C 226.637 357.600,226.800 356.133,226.800 354.000 C 226.800 351.867,226.963 350.400,227.200 350.400 C 227.437 350.400,227.600 348.933,227.600 346.800 C 227.600 344.667,227.763 343.200,228.000 343.200 C 228.235 343.200,228.400 341.808,228.400 339.824 C 228.400 337.967,228.580 336.336,228.800 336.200 C 229.020 336.064,229.200 334.433,229.200 332.576 C 229.200 330.592,229.365 329.200,229.600 329.200 C 229.837 329.200,230.000 327.733,230.000 325.600 C 230.000 323.467,230.163 322.000,230.400 322.000 C 230.637 322.000,230.800 320.541,230.800 318.424 C 230.800 316.457,230.980 314.736,231.200 314.600 C 231.420 314.464,231.600 313.361,231.600 312.148 C 231.600 309.961,232.169 308.800,233.242 308.800 C 233.752 308.800,239.639 306.020,240.000 305.608 C 240.110 305.483,241.055 304.935,242.100 304.391 C 243.145 303.847,244.000 303.266,244.000 303.101 C 244.000 302.935,244.278 302.800,244.617 302.800 C 244.956 302.800,245.620 302.440,246.092 302.000 C 246.564 301.560,247.187 301.200,247.475 301.200 C 247.764 301.200,248.000 301.020,248.000 300.800 C 248.000 300.580,248.320 300.400,248.712 300.400 C 249.103 300.400,249.683 300.040,250.000 299.600 C 250.317 299.160,250.780 298.800,251.029 298.800 C 251.278 298.800,252.046 298.260,252.737 297.600 C 253.428 296.940,254.192 296.400,254.436 296.400 C 254.680 296.400,255.383 295.860,256.000 295.200 C 256.617 294.540,257.247 294.000,257.400 294.000 C 257.553 294.000,258.156 293.490,258.740 292.867 C 259.323 292.243,260.220 291.509,260.734 291.234 C 263.158 289.940,273.540 279.558,274.834 277.134 C 275.109 276.620,275.843 275.723,276.467 275.140 C 277.090 274.556,277.600 273.953,277.600 273.800 C 277.600 273.647,278.140 273.017,278.800 272.400 C 279.460 271.783,280.000 271.126,280.001 270.940 C 280.001 270.753,280.541 269.970,281.200 269.200 C 281.859 268.430,282.399 267.615,282.399 267.388 C 282.400 267.162,282.760 266.717,283.200 266.400 C 283.640 266.083,284.000 265.503,284.000 265.112 C 284.000 264.720,284.180 264.400,284.400 264.400 C 284.620 264.400,284.800 264.164,284.800 263.875 C 284.800 263.587,285.160 262.964,285.600 262.492 C 286.040 262.020,286.400 261.356,286.400 261.017 C 286.400 260.678,286.535 260.400,286.701 260.400 C 286.866 260.400,287.447 259.545,287.991 258.500 C 288.535 257.455,289.083 256.510,289.209 256.400 C 289.677 255.991,291.600 251.696,291.600 251.060 C 291.600 250.697,291.780 250.400,292.000 250.400 C 292.220 250.400,292.400 250.040,292.400 249.600 C 292.400 249.160,292.580 248.800,292.800 248.800 C 293.020 248.800,293.200 248.260,293.200 247.600 C 293.200 246.940,293.380 246.400,293.600 246.400 C 293.820 246.400,294.000 246.040,294.000 245.600 C 294.000 245.160,294.180 244.800,294.400 244.800 C 294.620 244.800,294.800 244.260,294.800 243.600 C 294.800 242.940,294.980 242.400,295.200 242.400 C 295.420 242.400,295.600 242.040,295.600 241.600 C 295.600 241.160,295.780 240.800,296.000 240.800 C 296.220 240.800,296.400 240.260,296.400 239.600 C 296.400 238.940,296.580 238.400,296.800 238.400 C 297.020 238.400,297.200 237.961,297.200 237.424 C 297.200 236.887,297.380 236.336,297.600 236.200 C 297.820 236.064,298.000 235.434,298.000 234.800 C 298.000 234.166,298.180 233.536,298.400 233.400 C 298.620 233.264,298.800 232.634,298.800 232.000 C 298.800 231.366,298.980 230.736,299.200 230.600 C 299.420 230.464,299.600 229.811,299.600 229.148 C 299.600 226.936,300.061 226.800,307.571 226.800 C 311.857 226.800,314.400 226.651,314.400 226.400 C 314.400 226.180,315.120 226.000,316.000 226.000 C 316.880 226.000,317.600 225.844,317.600 225.653 C 317.600 225.462,318.312 225.210,319.182 225.093 C 320.052 224.976,321.591 224.323,322.602 223.640 C 323.613 222.958,324.532 222.400,324.645 222.400 C 325.124 222.400,331.600 215.476,331.600 214.963 C 331.600 214.654,331.780 214.400,332.000 214.400 C 332.220 214.400,332.400 214.040,332.400 213.600 C 332.400 213.160,332.580 212.800,332.800 212.800 C 333.020 212.800,333.200 212.440,333.200 212.000 C 333.200 211.560,333.380 211.200,333.600 211.200 C 333.820 211.200,334.000 210.840,334.000 210.400 C 334.000 209.960,334.180 209.600,334.400 209.600 C 334.620 209.600,334.800 209.071,334.800 208.424 C 334.800 207.777,334.980 207.136,335.200 207.000 C 335.440 206.851,335.600 204.137,335.600 200.200 C 335.600 196.263,335.440 193.549,335.200 193.400 C 334.980 193.264,334.800 192.724,334.800 192.200 C 334.800 191.676,334.620 191.136,334.400 191.000 C 334.180 190.864,334.000 190.313,334.000 189.776 C 334.000 189.239,333.820 188.800,333.600 188.800 C 333.380 188.800,333.200 188.440,333.200 188.000 C 333.200 187.560,333.020 187.200,332.800 187.200 C 332.580 187.200,332.400 186.840,332.400 186.400 C 332.400 185.960,332.250 185.600,332.068 185.600 C 331.885 185.600,331.480 185.108,331.168 184.508 C 330.582 183.381,325.534 178.185,324.169 177.304 C 322.071 175.949,319.521 174.800,318.613 174.800 C 318.056 174.800,317.600 174.620,317.600 174.400 C 317.600 174.180,316.880 174.000,316.000 174.000 C 315.120 174.000,314.400 173.820,314.400 173.600 C 314.400 173.349,311.857 173.200,307.571 173.200 C 300.061 173.200,299.600 173.064,299.600 170.852 C 299.600 170.189,299.420 169.536,299.200 169.400 C 298.980 169.264,298.800 168.634,298.800 168.000 C 298.800 167.366,298.620 166.736,298.400 166.600 C 298.180 166.464,298.000 165.834,298.000 165.200 C 298.000 164.566,297.820 163.936,297.600 163.800 C 297.380 163.664,297.200 163.113,297.200 162.576 C 297.200 162.039,297.020 161.600,296.800 161.600 C 296.580 161.600,296.400 161.060,296.400 160.400 C 296.400 159.740,296.220 159.200,296.000 159.200 C 295.780 159.200,295.600 158.840,295.600 158.400 C 295.600 157.960,295.420 157.600,295.200 157.600 C 294.980 157.600,294.800 157.060,294.800 156.400 C 294.800 155.740,294.620 155.200,294.400 155.200 C 294.180 155.200,294.000 154.840,294.000 154.400 C 294.000 153.960,293.820 153.600,293.600 153.600 C 293.380 153.600,293.200 153.060,293.200 152.400 C 293.200 151.740,293.020 151.200,292.800 151.200 C 292.580 151.200,292.400 150.840,292.400 150.400 C 292.400 149.960,292.220 149.600,292.000 149.600 C 291.780 149.600,291.600 149.303,291.600 148.940 C 291.600 148.304,289.677 144.009,289.209 143.600 C 289.083 143.490,288.535 142.545,287.991 141.500 C 287.447 140.455,286.866 139.600,286.701 139.600 C 286.535 139.600,286.400 139.322,286.400 138.983 C 286.400 138.644,286.040 137.980,285.600 137.508 C 285.160 137.036,284.800 136.413,284.800 136.125 C 284.800 135.836,284.620 135.600,284.400 135.600 C 284.180 135.600,284.000 135.280,284.000 134.888 C 284.000 134.497,283.640 133.917,283.200 133.600 C 282.760 133.283,282.400 132.838,282.399 132.612 C 282.399 132.385,281.859 131.570,281.200 130.800 C 280.541 130.030,280.001 129.247,280.001 129.060 C 280.000 128.874,279.460 128.217,278.800 127.600 C 278.140 126.983,277.600 126.353,277.600 126.200 C 277.600 126.047,277.090 125.444,276.467 124.860 C 275.843 124.277,275.109 123.380,274.834 122.866 C 273.540 120.442,263.158 110.060,260.734 108.766 C 260.220 108.491,259.323 107.757,258.740 107.133 C 258.156 106.510,257.553 106.000,257.400 106.000 C 257.247 106.000,256.617 105.460,256.000 104.800 C 255.383 104.140,254.680 103.600,254.436 103.600 C 254.192 103.600,253.428 103.060,252.737 102.400 C 252.046 101.740,251.278 101.200,251.029 101.200 C 250.780 101.200,250.317 100.840,250.000 100.400 C 249.683 99.960,249.103 99.600,248.712 99.600 C 248.320 99.600,248.000 99.420,248.000 99.200 C 248.000 98.980,247.764 98.800,247.475 98.800 C 247.187 98.800,246.564 98.440,246.092 98.000 C 245.620 97.560,244.956 97.200,244.617 97.200 C 244.278 97.200,244.000 97.065,244.000 96.899 C 244.000 96.734,243.145 96.153,242.100 95.609 C 241.055 95.065,240.110 94.516,240.000 94.389 C 239.759 94.111,236.711 92.637,236.333 92.615 C 236.187 92.607,235.932 92.465,235.767 92.300 C 235.602 92.135,235.137 92.000,234.733 92.000 C 234.330 92.000,234.000 91.820,234.000 91.600 C 234.000 91.380,233.717 91.200,233.371 91.200 C 232.171 91.200,231.600 90.122,231.600 87.852 C 231.600 86.639,231.420 85.536,231.200 85.400 C 230.980 85.264,230.800 83.543,230.800 81.576 C 230.800 79.459,230.637 78.000,230.400 78.000 C 230.163 78.000,230.000 76.533,230.000 74.400 C 230.000 72.267,229.837 70.800,229.600 70.800 C 229.365 70.800,229.200 69.408,229.200 67.424 C 229.200 65.567,229.020 63.936,228.800 63.800 C 228.580 63.664,228.400 62.033,228.400 60.176 C 228.400 58.192,228.235 56.800,228.000 56.800 C 227.763 56.800,227.600 55.333,227.600 53.200 C 227.600 51.067,227.437 49.600,227.200 49.600 C 226.963 49.600,226.800 48.133,226.800 46.000 C 226.800 43.867,226.637 42.400,226.400 42.400 C 226.164 42.400,226.000 40.956,226.000 38.867 C 226.000 36.923,225.865 35.200,225.700 35.036 C 225.535 34.873,225.189 31.738,224.930 28.069 C 224.266 18.637,224.031 17.522,221.974 14.025 C 220.408 11.364,216.155 8.400,213.903 8.400 C 213.296 8.400,212.800 8.220,212.800 8.000 C 212.800 7.737,202.800 7.600,183.600 7.600 C 164.400 7.600,154.400 7.737,154.400 8.000 M195.200 20.805 C 203.230 20.809,210.046 20.968,210.347 21.159 C 210.869 21.489,211.105 23.171,212.793 38.600 C 213.034 40.800,213.397 44.040,213.600 45.800 C 213.803 47.560,214.160 50.890,214.392 53.200 C 214.789 57.154,215.032 59.357,215.979 67.600 C 216.193 69.470,216.564 72.890,216.803 75.200 C 217.041 77.510,217.408 80.605,217.618 82.077 C 218.271 86.655,218.533 86.495,212.800 85.028 C 194.396 80.318,174.865 80.321,155.353 85.035 C 152.247 85.786,149.592 86.400,149.453 86.400 C 149.080 86.400,149.145 83.442,149.581 80.646 C 149.790 79.301,150.157 76.220,150.395 73.800 C 150.634 71.380,151.004 67.870,151.219 66.000 C 151.434 64.130,152.141 57.650,152.790 51.600 C 154.273 37.782,155.520 26.425,155.854 23.703 C 156.271 20.297,155.884 20.384,169.600 20.614 C 175.650 20.715,187.170 20.802,195.200 20.805 M197.800 94.344 C 203.095 95.138,207.308 95.971,210.200 96.796 C 211.080 97.048,212.430 97.397,213.200 97.574 C 217.930 98.657,234.719 105.726,236.000 107.174 C 236.342 107.560,238.564 108.838,239.300 109.071 C 239.685 109.193,240.000 109.452,240.000 109.647 C 240.000 109.841,240.236 110.000,240.525 110.000 C 240.813 110.000,241.436 110.360,241.908 110.800 C 242.380 111.240,242.920 111.600,243.108 111.600 C 243.296 111.600,243.798 111.915,244.225 112.300 C 244.651 112.685,245.749 113.509,246.665 114.130 C 255.006 119.792,269.612 135.278,273.229 142.295 C 273.542 142.903,273.902 143.490,274.029 143.600 C 274.156 143.710,274.696 144.610,275.230 145.600 C 275.763 146.590,276.290 147.490,276.400 147.600 C 276.510 147.710,276.974 148.520,277.430 149.400 C 277.887 150.280,278.468 151.360,278.722 151.800 C 281.590 156.773,286.316 169.967,287.678 176.800 C 289.586 186.376,289.770 188.417,289.770 200.000 C 289.770 211.605,289.546 214.060,287.631 223.400 C 286.447 229.178,283.758 237.367,281.178 243.058 C 279.524 246.704,276.811 251.999,276.390 252.400 C 276.275 252.510,275.735 253.455,275.191 254.500 C 274.647 255.545,274.066 256.400,273.901 256.400 C 273.735 256.400,273.600 256.600,273.600 256.844 C 273.600 258.252,264.670 269.582,259.308 274.978 C 253.505 280.817,241.976 290.000,240.448 290.000 C 240.201 290.000,240.000 290.147,240.000 290.326 C 240.000 290.634,239.071 291.198,235.100 293.300 C 234.165 293.795,233.310 294.300,233.200 294.422 C 233.010 294.634,231.771 295.231,226.800 297.508 C 221.177 300.083,212.809 302.840,207.000 304.031 C 197.660 305.946,195.205 306.170,183.600 306.170 C 171.814 306.170,168.308 305.834,159.400 303.847 C 151.770 302.146,140.554 298.066,135.400 295.118 C 134.960 294.866,133.880 294.287,133.000 293.830 C 132.120 293.374,131.310 292.908,131.200 292.795 C 131.090 292.682,130.145 292.158,129.100 291.632 C 128.055 291.105,127.200 290.523,127.200 290.337 C 127.200 290.152,127.001 290.000,126.757 290.000 C 123.557 290.000,105.971 274.003,99.053 264.800 C 97.813 263.150,96.656 261.620,96.483 261.400 C 95.360 259.977,93.600 257.186,93.600 256.828 C 93.600 256.593,93.420 256.400,93.200 256.400 C 92.980 256.400,92.800 256.130,92.800 255.800 C 92.800 255.470,92.664 255.200,92.498 255.200 C 92.331 255.200,91.941 254.615,91.630 253.900 C 91.319 253.185,90.945 252.510,90.799 252.400 C 89.372 251.322,82.400 234.794,81.182 229.600 C 81.001 228.830,80.648 227.480,80.396 226.600 C 79.559 223.668,78.761 219.604,77.920 214.000 C 77.335 210.102,77.335 189.898,77.920 186.000 C 78.735 180.569,79.552 176.371,80.335 173.600 C 80.553 172.830,81.013 171.170,81.357 169.911 C 83.074 163.642,89.252 149.019,90.784 147.600 C 91.172 147.240,92.444 145.016,92.671 144.300 C 92.793 143.915,93.052 143.600,93.247 143.600 C 93.441 143.600,93.600 143.364,93.600 143.075 C 93.600 142.787,93.960 142.164,94.400 141.692 C 94.840 141.220,95.203 140.691,95.207 140.517 C 95.211 140.343,95.648 139.660,96.177 139.000 C 96.706 138.340,98.082 136.540,99.235 135.000 C 104.389 128.115,111.511 121.005,118.800 115.470 C 120.450 114.217,122.250 112.836,122.800 112.401 C 123.350 111.966,124.025 111.608,124.300 111.605 C 124.575 111.602,124.800 111.442,124.800 111.249 C 124.800 111.055,125.340 110.673,126.000 110.400 C 126.660 110.127,127.200 109.766,127.200 109.598 C 127.200 109.430,127.515 109.193,127.900 109.071 C 128.654 108.832,130.873 107.550,131.200 107.164 C 131.442 106.879,140.756 102.325,143.000 101.395 C 151.129 98.025,161.339 95.350,169.502 94.450 C 171.097 94.274,172.530 94.003,172.686 93.848 C 173.102 93.431,194.533 93.855,197.800 94.344 M174.000 110.440 C 169.934 110.801,164.418 111.771,160.800 112.762 C 160.030 112.973,158.950 113.263,158.400 113.406 C 154.021 114.547,152.352 116.125,152.091 119.372 C 151.904 121.708,152.927 123.630,155.000 124.841 C 156.312 125.607,159.405 125.838,159.800 125.200 C 159.936 124.980,160.566 124.800,161.200 124.800 C 161.834 124.800,162.452 124.640,162.573 124.444 C 162.694 124.249,163.379 123.988,164.096 123.866 C 164.813 123.744,166.300 123.454,167.400 123.221 C 170.653 122.531,174.411 121.980,177.400 121.753 C 180.955 121.484,182.113 121.032,183.602 119.337 C 186.244 116.327,184.544 111.009,180.693 110.239 C 179.399 109.980,179.072 109.990,174.000 110.440 M199.806 112.524 C 197.412 113.959,196.094 116.962,196.855 119.243 C 197.414 120.920,199.505 123.200,200.484 123.200 C 200.884 123.200,201.523 123.359,201.905 123.553 C 204.953 125.102,208.211 124.683,210.300 122.474 C 213.149 119.461,211.383 113.855,207.310 112.982 C 206.700 112.852,205.787 112.577,205.281 112.372 C 204.011 111.858,200.766 111.947,199.806 112.524 M136.368 136.965 C 136.244 137.090,134.985 137.383,133.571 137.616 C 128.703 138.419,128.392 138.490,128.173 138.844 C 128.052 139.040,127.601 139.200,127.171 139.200 C 126.741 139.200,126.077 139.359,125.695 139.553 C 125.313 139.748,124.550 140.089,124.000 140.311 C 112.478 144.975,103.150 153.641,97.426 165.000 C 96.428 166.980,95.609 168.904,95.606 169.276 C 95.603 169.648,95.441 170.051,95.248 170.170 C 95.054 170.290,94.797 170.796,94.676 171.294 C 94.555 171.792,94.248 172.920,93.994 173.800 C 92.887 177.643,92.675 179.873,92.686 187.600 C 92.696 195.755,92.955 199.054,93.641 199.780 C 93.838 199.989,94.000 200.653,94.000 201.256 C 94.000 201.859,94.180 202.464,94.400 202.600 C 94.620 202.736,94.800 203.276,94.800 203.800 C 94.800 204.324,94.980 204.864,95.200 205.000 C 95.420 205.136,95.600 205.518,95.600 205.849 C 95.600 206.901,98.054 211.665,100.724 215.800 C 103.715 220.429,174.647 292.059,177.299 293.128 C 178.015 293.417,178.913 293.821,179.295 294.026 C 180.197 294.512,187.003 294.512,187.905 294.026 C 188.287 293.821,189.182 293.418,189.893 293.132 C 191.451 292.504,262.197 221.798,264.867 218.200 C 269.484 211.977,272.344 205.696,274.062 198.000 C 275.283 192.534,275.013 178.395,273.623 175.000 C 273.443 174.560,272.878 172.850,272.368 171.200 C 269.307 161.299,257.624 146.608,250.800 144.081 C 250.470 143.958,250.110 143.754,250.000 143.627 C 249.615 143.181,244.682 140.800,244.144 140.800 C 243.845 140.800,243.600 140.620,243.600 140.400 C 243.600 140.180,243.161 140.000,242.624 140.000 C 242.087 140.000,241.536 139.820,241.400 139.600 C 241.264 139.380,240.724 139.200,240.200 139.200 C 239.676 139.200,239.148 139.040,239.027 138.844 C 238.906 138.649,238.221 138.387,237.504 138.264 C 236.787 138.141,235.030 137.808,233.600 137.526 C 230.196 136.852,218.204 136.852,214.800 137.526 C 213.370 137.808,211.613 138.141,210.896 138.264 C 210.179 138.387,209.494 138.649,209.373 138.844 C 209.252 139.040,208.801 139.200,208.371 139.200 C 207.941 139.200,207.277 139.359,206.895 139.553 C 206.513 139.748,205.750 140.086,205.200 140.305 C 198.839 142.842,193.761 146.245,188.083 151.778 C 183.670 156.078,183.449 156.148,181.335 153.917 C 177.589 149.964,171.338 144.724,169.600 144.081 C 169.270 143.958,168.910 143.754,168.800 143.627 C 168.415 143.181,163.482 140.800,162.944 140.800 C 162.645 140.800,162.400 140.620,162.400 140.400 C 162.400 140.180,161.961 140.000,161.424 140.000 C 160.887 140.000,160.336 139.820,160.200 139.600 C 160.064 139.380,159.524 139.200,159.000 139.200 C 158.476 139.200,157.948 139.040,157.827 138.844 C 157.706 138.649,157.021 138.386,156.304 138.261 C 155.587 138.136,154.010 137.830,152.800 137.581 C 150.453 137.098,136.749 136.584,136.368 136.965 M148.323 148.811 C 149.355 149.038,151.100 149.416,152.200 149.652 C 160.223 151.375,165.541 154.712,174.381 163.570 C 183.378 172.586,183.706 172.589,192.675 163.731 C 201.782 154.737,207.231 151.299,215.000 149.648 C 216.100 149.414,217.845 149.038,218.877 148.811 C 226.290 147.187,237.559 149.771,245.519 154.920 C 263.565 166.594,268.600 191.091,256.675 209.200 C 254.453 212.574,184.730 282.800,183.602 282.800 C 182.996 282.800,113.160 213.064,111.098 210.400 C 110.502 209.630,110.011 208.790,110.007 208.533 C 110.003 208.277,109.844 208.007,109.653 207.933 C 109.073 207.710,106.115 201.177,105.246 198.200 C 103.743 193.045,103.533 183.360,104.831 179.000 C 106.551 173.222,107.915 169.934,109.672 167.328 C 110.293 166.408,110.800 165.463,110.800 165.228 C 110.800 164.993,110.941 164.800,111.114 164.800 C 111.286 164.800,111.730 164.287,112.101 163.660 C 117.820 153.978,136.659 146.255,148.323 148.811 M161.120 172.500 C 160.360 173.215,159.335 174.700,158.840 175.800 C 157.583 178.597,154.730 184.573,152.062 190.000 L 149.800 194.600 137.781 194.800 C 127.079 194.978,125.642 195.079,124.662 195.722 C 120.935 198.166,121.237 203.690,125.208 205.707 C 126.477 206.351,127.915 206.404,141.474 206.307 L 156.348 206.200 157.605 205.000 C 158.297 204.340,159.302 202.810,159.840 201.600 C 163.277 193.866,163.142 193.778,165.975 205.600 C 166.845 209.230,168.661 216.610,170.012 222.000 C 171.362 227.390,172.550 232.250,172.652 232.800 C 172.754 233.350,173.024 234.520,173.252 235.400 C 173.480 236.280,173.831 237.675,174.033 238.500 C 175.824 245.818,176.072 246.530,177.293 247.844 C 179.425 250.139,181.999 250.481,184.681 248.826 C 186.603 247.639,186.866 247.018,189.259 238.000 C 190.058 234.991,190.496 233.405,191.250 230.800 C 191.473 230.030,191.747 228.950,191.858 228.400 C 191.969 227.850,192.213 227.040,192.400 226.600 C 192.758 225.756,193.115 224.259,193.473 222.096 C 193.591 221.379,193.849 220.694,194.044 220.573 C 194.240 220.452,194.400 219.834,194.400 219.200 C 194.400 218.566,194.580 217.936,194.800 217.800 C 195.020 217.664,195.200 217.034,195.200 216.400 C 195.200 215.766,195.380 215.136,195.600 215.000 C 195.820 214.864,196.000 214.322,196.000 213.795 C 196.000 213.269,196.161 212.424,196.358 211.919 C 196.555 211.413,196.936 210.190,197.205 209.200 C 198.450 204.608,198.618 204.481,200.000 207.093 C 200.550 208.133,201.612 209.392,202.359 209.892 L 203.718 210.800 222.213 210.800 C 237.275 210.800,240.909 210.696,241.787 210.241 C 246.107 207.999,246.337 202.234,242.206 199.731 C 241.101 199.061,239.669 198.990,225.140 198.883 L 209.279 198.766 208.377 196.483 C 207.881 195.227,207.323 194.029,207.138 193.820 C 206.952 193.611,206.800 193.211,206.800 192.932 C 206.800 192.652,206.370 191.473,205.844 190.312 C 205.318 189.150,204.309 186.800,203.601 185.088 C 200.549 177.703,193.395 177.769,191.413 185.200 C 191.266 185.750,190.991 186.740,190.801 187.400 C 190.611 188.060,190.070 190.040,189.600 191.800 C 189.130 193.560,188.593 195.540,188.407 196.200 C 187.787 198.401,186.869 201.767,186.005 205.000 C 182.363 218.627,181.568 220.650,181.091 217.500 C 180.872 216.054,179.003 208.487,178.392 206.572 C 178.176 205.896,178.000 204.962,178.000 204.495 C 178.000 204.029,177.839 203.548,177.642 203.426 C 177.445 203.305,177.190 202.529,177.075 201.703 C 176.960 200.876,176.657 199.390,176.404 198.400 C 176.150 197.410,175.845 196.013,175.727 195.296 C 175.608 194.579,175.351 193.894,175.156 193.773 C 174.960 193.652,174.800 193.081,174.800 192.505 C 174.800 191.928,174.632 190.904,174.427 190.228 C 174.222 189.553,173.877 188.280,173.660 187.400 C 173.443 186.520,173.056 184.990,172.800 184.000 C 172.544 183.010,172.169 181.525,171.967 180.700 C 169.902 172.259,169.089 171.200,164.677 171.200 C 162.771 171.200,162.329 171.362,161.120 172.500 M311.005 186.435 C 322.340 188.530,326.571 201.609,318.547 209.748 C 315.488 212.851,311.335 214.150,305.200 213.925 L 301.800 213.800 301.837 211.800 C 301.858 210.700,302.019 207.007,302.196 203.593 C 302.418 199.312,302.361 195.754,302.012 192.130 C 301.735 189.239,301.629 186.677,301.777 186.437 C 302.129 185.868,307.932 185.867,311.005 186.435 M153.000 314.406 C 164.563 317.683,178.791 319.246,189.717 318.439 C 199.678 317.704,205.068 316.913,212.492 315.096 C 218.468 313.634,218.220 313.519,217.674 317.485 C 217.438 319.198,217.048 322.490,216.807 324.800 C 216.566 327.110,216.206 330.440,216.006 332.200 C 215.160 339.660,214.812 342.835,214.403 346.800 C 214.165 349.110,213.805 352.440,213.603 354.200 C 212.647 362.554,212.318 365.484,211.634 371.747 C 211.202 375.696,210.702 378.613,210.429 378.782 C 209.538 379.333,158.351 379.620,157.221 379.080 C 156.106 378.547,155.913 377.629,154.855 367.800 C 154.594 365.380,153.926 359.260,153.371 354.200 C 152.815 349.140,152.094 342.480,151.768 339.400 C 151.442 336.320,150.994 332.180,150.771 330.200 C 150.323 326.199,149.732 320.433,149.342 316.256 L 149.086 313.511 150.443 313.789 C 151.189 313.941,152.340 314.219,153.000 314.406 " stroke="none" fill="#5c246c" fill-rule="evenodd"></path><path id="SvgjsPath1001" d="M157.800 20.658 C 156.415 21.053,156.117 21.545,155.831 23.904 C 154.928 31.373,154.008 39.961,154.004 40.967 C 153.996 43.280,154.417 41.644,154.831 37.762 C 155.063 35.583,155.413 32.360,155.609 30.600 C 155.805 28.840,156.089 26.140,156.240 24.600 C 156.592 21.017,156.053 21.213,165.545 21.206 L 173.690 21.200 173.462 23.900 C 173.052 28.760,172.796 31.351,172.407 34.600 C 171.917 38.693,171.333 43.931,170.803 49.000 C 170.572 51.200,170.216 54.440,170.010 56.200 C 169.587 59.824,169.023 65.041,168.388 71.200 C 167.290 81.844,167.165 82.248,164.860 82.605 C 160.599 83.263,154.341 84.658,150.280 85.854 C 149.619 86.049,149.577 85.813,149.765 82.933 C 149.899 80.881,149.853 80.214,149.632 81.000 C 149.227 82.440,149.096 86.400,149.453 86.400 C 149.592 86.400,152.247 85.786,155.353 85.035 C 167.167 82.181,178.289 81.074,189.307 81.658 C 199.266 82.185,204.788 82.977,212.800 85.028 C 218.533 86.495,218.271 86.655,217.618 82.077 C 217.408 80.605,217.041 77.510,216.803 75.200 C 216.564 72.890,216.193 69.470,215.979 67.600 C 215.032 59.357,214.789 57.154,214.392 53.200 C 214.160 50.890,213.803 47.560,213.600 45.800 C 213.397 44.040,213.034 40.800,212.793 38.600 C 211.105 23.171,210.869 21.489,210.347 21.159 C 210.046 20.968,203.230 20.809,195.200 20.805 C 187.170 20.802,175.650 20.715,169.600 20.614 C 163.550 20.513,158.240 20.532,157.800 20.658 M152.657 52.629 C 152.028 58.364,151.593 63.404,151.689 63.829 C 151.785 64.253,151.983 63.340,152.129 61.800 C 152.275 60.260,152.575 57.782,152.797 56.293 C 153.019 54.803,153.200 52.877,153.200 52.012 C 153.200 51.147,153.390 49.553,153.623 48.469 C 153.855 47.385,153.990 45.531,153.923 44.349 C 153.843 42.948,153.402 45.830,152.657 52.629 M151.033 67.668 C 150.856 69.355,150.797 70.975,150.902 71.268 C 151.160 71.990,151.718 66.808,151.515 65.579 C 151.426 65.040,151.209 65.981,151.033 67.668 M150.233 74.868 C 150.056 76.555,149.997 78.175,150.102 78.468 C 150.360 79.190,150.918 74.008,150.715 72.779 C 150.626 72.240,150.409 73.181,150.233 74.868 M137.800 148.754 C 137.140 148.896,139.373 149.014,142.762 149.016 C 146.151 149.017,148.491 148.897,147.962 148.749 C 146.741 148.407,139.389 148.411,137.800 148.754 M219.223 148.752 C 218.686 148.902,220.926 149.025,224.200 149.025 C 227.474 149.025,229.714 148.902,229.177 148.752 C 228.639 148.602,226.400 148.480,224.200 148.480 C 222.000 148.480,219.761 148.602,219.223 148.752 M133.400 149.600 L 132.600 149.944 133.400 149.932 C 133.840 149.926,134.650 149.776,135.200 149.600 L 136.200 149.280 135.200 149.268 C 134.650 149.262,133.840 149.411,133.400 149.600 M150.600 149.600 C 151.040 149.789,151.760 149.944,152.200 149.944 L 153.000 149.944 152.200 149.600 C 151.760 149.411,151.040 149.256,150.600 149.256 L 149.800 149.256 150.600 149.600 M215.000 149.600 L 214.200 149.944 215.000 149.932 C 215.440 149.926,216.250 149.776,216.800 149.600 L 217.800 149.280 216.800 149.268 C 216.250 149.262,215.440 149.411,215.000 149.600 M231.800 149.600 C 232.240 149.789,232.960 149.944,233.400 149.944 L 234.200 149.944 233.400 149.600 C 232.960 149.411,232.240 149.256,231.800 149.256 L 231.000 149.256 231.800 149.600 M130.600 150.400 C 130.096 150.617,130.022 150.744,130.400 150.744 C 130.730 150.744,131.360 150.589,131.800 150.400 C 132.304 150.183,132.378 150.056,132.000 150.056 C 131.670 150.056,131.040 150.211,130.600 150.400 M154.000 150.400 C 154.330 150.613,154.870 150.788,155.200 150.788 C 155.733 150.788,155.733 150.745,155.200 150.400 C 154.870 150.187,154.330 150.012,154.000 150.012 C 153.467 150.012,153.467 150.055,154.000 150.400 M212.000 150.400 C 211.467 150.745,211.467 150.788,212.000 150.788 C 212.330 150.788,212.870 150.613,213.200 150.400 C 213.733 150.055,213.733 150.012,213.200 150.012 C 212.870 150.012,212.330 150.187,212.000 150.400 M237.200 151.201 C 245.338 154.382,250.927 158.654,255.813 165.425 C 258.321 168.900,261.568 176.069,261.600 178.200 C 261.607 178.640,261.800 179.270,262.030 179.600 C 263.097 181.131,261.081 174.147,259.490 170.800 C 255.073 161.510,241.330 149.944,234.800 150.020 C 234.470 150.024,235.550 150.555,237.200 151.201 M126.068 152.253 C 124.455 153.031,123.206 153.740,123.293 153.827 C 123.380 153.914,124.520 153.454,125.826 152.805 C 127.132 152.156,128.414 151.619,128.676 151.613 C 128.938 151.606,129.264 151.420,129.400 151.200 C 129.798 150.555,129.176 150.752,126.068 152.253 M156.800 151.303 C 157.350 151.549,158.610 152.111,159.600 152.550 C 163.275 154.182,167.560 157.494,173.300 163.140 C 176.545 166.332,179.200 168.820,179.200 168.668 C 179.200 168.163,169.339 158.523,166.706 156.454 C 164.140 154.437,157.397 150.775,156.345 150.827 C 156.045 150.842,156.250 151.056,156.800 151.303 M207.638 152.209 C 202.362 154.737,188.000 166.756,188.000 168.642 C 188.000 168.808,190.655 166.333,193.900 163.142 C 200.246 156.902,203.048 154.782,208.145 152.365 C 209.935 151.516,211.215 150.817,210.989 150.811 C 210.763 150.805,209.255 151.434,207.638 152.209 M119.976 155.882 C 117.071 158.065,113.073 162.015,112.101 163.660 C 111.730 164.287,111.286 164.800,111.114 164.800 C 110.941 164.800,110.800 164.993,110.800 165.228 C 110.800 165.463,110.293 166.408,109.672 167.328 C 108.285 169.385,107.174 171.796,106.045 175.200 C 104.541 179.734,104.450 180.139,104.245 183.200 L 104.044 186.200 104.562 183.000 C 106.414 171.560,111.614 162.617,120.051 156.362 C 122.546 154.513,123.108 154.000,122.640 154.000 C 122.551 154.000,121.353 154.847,119.976 155.882 M179.600 169.105 C 179.600 169.696,181.999 170.581,183.600 170.581 C 185.156 170.581,187.600 169.702,187.600 169.142 C 187.600 168.944,187.129 169.090,186.553 169.468 C 185.160 170.381,182.118 170.361,180.700 169.430 C 180.095 169.033,179.600 168.887,179.600 169.105 M163.400 170.800 C 162.814 171.052,163.169 171.151,164.726 171.172 C 169.091 171.230,170.005 172.439,172.000 180.800 C 172.184 181.570,172.529 182.965,172.767 183.900 C 173.808 187.986,173.973 188.662,174.200 189.747 C 174.331 190.378,174.534 190.799,174.651 190.682 C 174.921 190.412,171.327 175.811,170.589 174.179 C 169.360 171.458,165.781 169.777,163.400 170.800 M160.548 172.500 C 159.346 173.793,156.200 179.934,156.557 180.291 C 156.660 180.394,157.136 179.605,157.614 178.539 C 158.093 177.473,158.767 175.970,159.113 175.200 C 159.459 174.430,160.362 173.215,161.121 172.500 C 161.880 171.785,162.333 171.200,162.129 171.200 C 161.924 171.200,161.213 171.785,160.548 172.500 M194.980 179.763 C 192.864 180.684,189.997 185.331,190.954 186.288 C 191.068 186.401,191.277 185.978,191.418 185.347 C 193.107 177.810,200.528 177.652,203.601 185.088 C 204.309 186.800,205.318 189.150,205.844 190.312 C 206.370 191.473,206.800 192.652,206.800 192.932 C 206.800 193.211,206.952 193.611,207.138 193.820 C 207.323 194.029,207.881 195.227,208.377 196.483 L 209.279 198.766 225.140 198.883 C 242.690 199.012,242.600 198.999,244.185 201.682 C 244.566 202.327,244.970 202.763,245.083 202.651 C 245.460 202.273,243.550 199.995,242.268 199.294 C 241.145 198.679,239.202 198.577,225.226 198.400 L 209.453 198.200 207.528 193.400 C 206.470 190.760,205.447 188.240,205.255 187.800 C 205.064 187.360,204.721 186.550,204.494 186.000 C 203.191 182.842,202.620 181.835,201.560 180.822 C 199.849 179.187,197.259 178.770,194.980 179.763 M262.578 187.600 C 262.578 191.895,262.696 194.245,262.859 193.200 C 263.014 192.210,263.141 189.690,263.141 187.600 C 263.141 185.510,263.014 182.990,262.859 182.000 C 262.696 180.955,262.578 183.305,262.578 187.600 M153.855 185.455 C 153.476 186.249,153.253 186.986,153.359 187.093 C 153.466 187.199,153.836 186.609,154.182 185.782 C 154.998 183.829,154.749 183.580,153.855 185.455 M190.229 187.829 C 190.081 188.415,190.051 188.984,190.161 189.094 C 190.271 189.204,190.481 188.815,190.629 188.229 C 190.776 187.642,190.806 187.073,190.696 186.963 C 190.586 186.853,190.376 187.242,190.229 187.829 M150.868 191.780 L 149.642 194.400 137.815 194.400 C 126.248 194.400,125.959 194.420,124.625 195.294 C 123.361 196.123,121.998 197.872,122.001 198.662 C 122.002 198.848,122.354 198.425,122.782 197.722 C 124.420 195.035,124.493 195.021,137.781 194.800 L 149.800 194.600 151.137 192.071 C 151.873 190.680,152.389 189.456,152.284 189.351 C 152.180 189.246,151.542 190.339,150.868 191.780 M104.222 192.396 C 104.523 196.880,108.416 208.000,109.685 208.000 C 109.850 208.000,109.374 206.875,108.628 205.500 C 106.573 201.715,105.532 198.441,104.589 192.800 L 104.021 189.400 104.222 192.396 M189.400 190.800 C 189.248 191.491,189.214 192.147,189.324 192.257 C 189.434 192.367,189.648 191.891,189.800 191.200 C 189.952 190.509,189.986 189.853,189.876 189.743 C 189.766 189.633,189.552 190.109,189.400 190.800 M174.840 192.276 C 174.818 192.978,174.980 193.664,175.200 193.800 C 175.660 194.084,175.660 193.436,175.200 192.000 C 174.894 191.045,174.878 191.057,174.840 192.276 M188.629 193.829 C 188.481 194.415,188.451 194.984,188.561 195.094 C 188.671 195.204,188.881 194.815,189.029 194.229 C 189.176 193.642,189.206 193.073,189.096 192.963 C 188.986 192.853,188.776 193.242,188.629 193.829 M175.646 195.200 C 175.627 195.750,175.787 196.470,176.000 196.800 C 176.494 197.564,176.494 196.742,176.000 195.200 L 175.680 194.200 175.646 195.200 M261.791 196.300 C 260.935 200.506,257.980 206.884,255.075 210.800 C 251.940 215.027,184.730 282.000,183.624 282.000 C 182.519 282.000,116.623 216.591,112.700 211.600 C 110.022 208.193,109.999 208.167,110.007 208.620 C 110.011 208.829,110.502 209.630,111.098 210.400 C 113.160 213.064,182.996 282.800,183.602 282.800 C 184.730 282.800,254.453 212.574,256.675 209.200 C 259.702 204.602,263.440 195.200,262.239 195.200 C 262.116 195.200,261.914 195.695,261.791 196.300 M162.566 196.055 C 162.385 196.348,162.450 196.416,162.738 196.238 C 162.992 196.081,163.200 196.049,163.200 196.166 C 163.200 196.481,165.354 205.140,165.994 207.400 C 166.181 208.060,166.456 209.198,166.605 209.929 C 166.754 210.659,166.963 211.170,167.069 211.064 C 167.175 210.958,166.613 208.200,165.819 204.936 C 163.623 195.907,163.264 194.926,162.566 196.055 M187.829 196.629 C 187.681 197.215,187.651 197.784,187.761 197.894 C 187.871 198.004,188.081 197.615,188.229 197.029 C 188.376 196.442,188.406 195.873,188.296 195.763 C 188.186 195.653,187.976 196.042,187.829 196.629 M161.182 198.661 C 160.702 199.727,159.984 201.320,159.587 202.200 C 159.189 203.080,158.298 204.340,157.606 205.000 L 156.348 206.200 141.474 206.307 C 124.855 206.426,124.760 206.413,122.908 203.641 C 121.948 202.204,121.683 202.255,122.463 203.726 C 124.036 206.697,124.652 206.800,140.800 206.800 C 155.871 206.800,156.481 206.734,158.175 204.925 C 159.250 203.776,162.564 197.231,162.237 196.903 C 162.137 196.804,161.662 197.595,161.182 198.661 M176.446 198.400 C 176.427 198.950,176.587 199.670,176.800 200.000 C 177.294 200.764,177.294 199.942,176.800 198.400 L 176.480 197.400 176.446 198.400 M187.073 199.353 C 186.923 199.745,186.811 200.366,186.825 200.733 C 186.842 201.175,186.981 201.074,187.237 200.434 C 187.449 199.903,187.561 199.282,187.485 199.054 C 187.409 198.827,187.224 198.961,187.073 199.353 M121.701 200.600 C 121.705 201.480,121.787 201.793,121.883 201.295 C 121.979 200.798,121.975 200.078,121.875 199.695 C 121.775 199.313,121.696 199.720,121.701 200.600 M177.240 201.876 C 177.218 202.578,177.380 203.264,177.600 203.400 C 178.060 203.684,178.060 203.036,177.600 201.600 C 177.294 200.645,177.278 200.657,177.240 201.876 M186.273 202.153 C 186.123 202.545,186.011 203.166,186.025 203.533 C 186.042 203.975,186.181 203.874,186.437 203.234 C 186.649 202.703,186.761 202.082,186.685 201.854 C 186.609 201.627,186.424 201.761,186.273 202.153 M245.200 204.805 C 245.200 207.039,243.804 209.358,242.045 210.048 C 241.519 210.254,241.207 210.540,241.351 210.684 C 241.736 211.069,243.664 209.527,244.700 208.004 C 245.502 206.825,246.031 203.200,245.400 203.200 C 245.290 203.200,245.200 203.922,245.200 204.805 M178.046 204.800 C 178.027 205.350,178.187 206.070,178.400 206.400 C 178.894 207.164,178.894 206.342,178.400 204.800 L 178.080 203.800 178.046 204.800 M185.400 205.600 C 185.248 206.291,185.214 206.947,185.324 207.057 C 185.434 207.167,185.648 206.691,185.800 206.000 C 185.952 205.309,185.986 204.653,185.876 204.543 C 185.766 204.433,185.552 204.909,185.400 205.600 M198.064 206.219 C 197.809 206.779,197.616 207.544,197.636 207.919 C 197.656 208.293,197.841 208.015,198.048 207.300 C 198.394 206.099,199.200 205.473,199.200 206.406 C 199.200 207.179,200.993 209.541,202.056 210.169 C 203.678 211.127,203.902 210.923,202.359 209.892 C 201.612 209.392,200.550 208.133,200.000 207.093 C 198.845 204.909,198.692 204.840,198.064 206.219 M178.868 208.000 C 178.862 208.550,179.011 209.360,179.200 209.800 L 179.544 210.600 179.532 209.800 C 179.526 209.360,179.376 208.550,179.200 208.000 L 178.880 207.000 178.868 208.000 M184.673 208.153 C 184.523 208.545,184.411 209.166,184.425 209.533 C 184.442 209.975,184.581 209.874,184.837 209.234 C 185.049 208.703,185.161 208.082,185.085 207.854 C 185.009 207.627,184.824 207.761,184.673 208.153 M197.073 209.353 C 196.923 209.745,196.811 210.366,196.825 210.733 C 196.842 211.175,196.981 211.074,197.237 210.434 C 197.449 209.903,197.561 209.282,197.485 209.054 C 197.409 208.827,197.224 208.961,197.073 209.353 M183.873 210.953 C 183.723 211.345,183.611 211.966,183.625 212.333 C 183.642 212.775,183.781 212.674,184.037 212.034 C 184.249 211.503,184.361 210.882,184.285 210.654 C 184.209 210.427,184.024 210.561,183.873 210.953 M179.656 211.400 C 179.656 211.840,179.811 212.560,180.000 213.000 L 180.344 213.800 180.344 213.000 C 180.344 212.560,180.189 211.840,180.000 211.400 L 179.656 210.600 179.656 211.400 M213.100 211.100 C 218.215 211.163,226.585 211.163,231.700 211.100 C 236.815 211.036,232.630 210.985,222.400 210.985 C 212.170 210.985,207.985 211.036,213.100 211.100 M167.246 212.400 C 167.227 212.950,167.387 213.670,167.600 214.000 C 168.094 214.764,168.094 213.942,167.600 212.400 L 167.280 211.400 167.246 212.400 M196.273 212.153 C 196.123 212.545,196.011 213.166,196.025 213.533 C 196.042 213.975,196.181 213.874,196.437 213.234 C 196.649 212.703,196.761 212.082,196.685 211.854 C 196.609 211.627,196.424 211.761,196.273 212.153 M182.622 215.636 C 182.123 217.302,181.784 217.903,181.552 217.536 C 181.307 217.150,181.211 217.251,181.206 217.900 C 181.191 220.080,182.681 217.753,183.383 214.500 C 183.843 212.369,183.404 213.023,182.622 215.636 M180.434 214.600 C 180.422 215.040,180.587 215.670,180.800 216.000 C 181.314 216.795,181.314 215.796,180.800 214.600 L 180.456 213.800 180.434 214.600 M168.046 215.600 C 168.027 216.150,168.187 216.870,168.400 217.200 C 168.894 217.964,168.894 217.142,168.400 215.600 L 168.080 214.600 168.046 215.600 M195.467 215.067 C 195.320 215.213,195.215 215.798,195.234 216.367 C 195.268 217.381,195.275 217.379,195.621 216.220 C 195.985 215.003,195.931 214.602,195.467 215.067 M194.692 217.842 C 194.531 218.002,194.411 218.598,194.425 219.167 L 194.451 220.200 194.837 219.234 C 195.253 218.194,195.167 217.367,194.692 217.842 M168.856 219.000 C 168.856 219.440,169.011 220.160,169.200 220.600 L 169.544 221.400 169.544 220.600 C 169.544 220.160,169.389 219.440,169.200 219.000 L 168.856 218.200 168.856 219.000 M193.892 220.642 C 193.731 220.802,193.611 221.398,193.625 221.967 L 193.651 223.000 194.037 222.034 C 194.453 220.994,194.367 220.167,193.892 220.642 M169.656 222.200 C 169.656 222.640,169.811 223.360,170.000 223.800 L 170.344 224.600 170.344 223.800 C 170.344 223.360,170.189 222.640,170.000 222.200 L 169.656 221.400 169.656 222.200 M193.049 223.815 C 192.912 224.173,192.816 224.856,192.836 225.333 C 192.862 225.947,192.985 225.808,193.259 224.856 C 193.657 223.472,193.494 222.658,193.049 223.815 M170.456 225.400 C 170.456 225.840,170.611 226.560,170.800 227.000 L 171.144 227.800 171.144 227.000 C 171.144 226.560,170.989 225.840,170.800 225.400 L 170.456 224.600 170.456 225.400 M192.267 226.667 C 192.120 226.813,192.015 227.398,192.034 227.967 C 192.068 228.981,192.075 228.979,192.421 227.820 C 192.785 226.603,192.731 226.202,192.267 226.667 M171.256 228.600 C 171.256 229.040,171.411 229.760,171.600 230.200 L 171.944 231.000 171.944 230.200 C 171.944 229.760,171.789 229.040,171.600 228.600 L 171.256 227.800 171.256 228.600 M191.386 230.253 C 191.247 230.884,191.037 231.670,190.920 232.000 C 190.686 232.661,190.441 233.546,189.259 238.000 C 187.452 244.807,187.128 245.850,186.457 246.998 C 186.071 247.659,185.045 248.602,184.178 249.093 C 183.226 249.632,182.882 249.989,183.311 249.993 C 184.807 250.007,187.374 246.778,188.076 244.000 C 188.437 242.570,189.108 240.050,189.567 238.400 C 191.455 231.612,191.987 229.454,191.818 229.284 C 191.719 229.186,191.525 229.622,191.386 230.253 M172.034 231.800 C 172.072 233.166,172.738 234.442,172.766 233.200 C 172.778 232.650,172.613 231.930,172.400 231.600 C 172.080 231.105,172.016 231.140,172.034 231.800 M172.846 235.200 C 172.865 235.530,173.024 236.250,173.200 236.800 L 173.520 237.800 173.554 236.800 C 173.573 236.250,173.413 235.530,173.200 235.200 C 172.855 234.667,172.816 234.667,172.846 235.200 M173.646 238.400 C 173.665 238.730,173.824 239.450,174.000 240.000 L 174.320 241.000 174.354 240.000 C 174.373 239.450,174.213 238.730,174.000 238.400 C 173.655 237.867,173.616 237.867,173.646 238.400 M174.446 241.600 C 174.465 241.930,174.624 242.650,174.800 243.200 L 175.120 244.200 175.154 243.200 C 175.173 242.650,175.013 241.930,174.800 241.600 C 174.455 241.067,174.416 241.067,174.446 241.600 M175.394 245.376 C 175.888 247.618,178.393 250.073,180.080 249.968 C 180.366 249.950,180.109 249.717,179.509 249.451 C 178.055 248.806,176.002 246.805,175.994 246.025 C 175.991 245.681,175.796 245.130,175.562 244.800 C 175.237 244.344,175.197 244.482,175.394 245.376 M149.247 315.668 C 149.273 316.841,149.447 318.340,149.634 319.000 C 149.864 319.817,149.912 319.274,149.783 317.300 C 149.557 313.827,149.170 313.939,155.675 315.584 C 158.246 316.234,161.306 316.860,162.475 316.974 C 164.841 317.206,163.879 316.894,159.400 315.976 C 157.368 315.560,155.168 315.020,153.000 314.406 C 152.340 314.219,151.215 313.947,150.500 313.801 L 149.200 313.536 149.247 315.668 M212.000 315.185 C 200.954 318.063,186.913 319.233,175.600 318.218 C 171.530 317.853,167.390 317.484,166.400 317.398 C 165.410 317.311,164.960 317.341,165.400 317.464 C 167.104 317.938,167.114 317.973,168.221 327.000 C 168.329 327.880,168.604 330.490,168.832 332.800 C 169.229 336.833,169.414 338.545,170.402 347.400 C 170.648 349.600,171.015 352.930,171.217 354.800 C 171.420 356.670,171.773 359.910,172.002 362.000 C 172.785 369.144,173.224 373.400,173.458 376.108 L 173.691 378.816 165.146 378.708 L 156.600 378.600 156.327 376.000 C 156.177 374.570,155.867 371.780,155.637 369.800 C 155.408 367.820,155.037 364.417,154.814 362.238 C 154.591 360.058,154.293 358.168,154.151 358.038 C 153.739 357.659,154.482 365.632,155.750 375.196 C 156.152 378.231,156.309 378.644,157.221 379.080 C 158.352 379.620,209.538 379.333,210.431 378.781 C 210.868 378.511,211.411 374.727,212.410 365.000 C 212.636 362.800,212.986 359.560,213.188 357.800 C 213.533 354.798,213.779 352.555,214.821 342.900 C 215.053 340.755,215.403 337.560,215.600 335.800 C 216.564 327.178,216.876 324.331,217.201 321.200 C 217.395 319.330,217.678 316.945,217.831 315.900 C 218.170 313.582,218.158 313.580,212.000 315.185 M150.073 322.800 C 150.058 324.010,150.195 325.720,150.377 326.600 L 150.708 328.200 150.724 326.200 C 150.733 325.100,150.597 323.390,150.420 322.400 L 150.100 320.600 150.073 322.800 M150.869 330.200 C 150.856 331.300,150.995 332.920,151.177 333.800 L 151.508 335.400 151.531 333.400 C 151.544 332.300,151.405 330.680,151.223 329.800 L 150.892 328.200 150.869 330.200 M151.782 339.000 C 152.209 344.440,153.994 358.271,153.795 354.600 C 153.700 352.840,153.437 349.870,153.212 348.000 C 152.986 346.130,152.622 342.635,152.402 340.234 C 152.181 337.833,151.888 335.763,151.750 335.634 C 151.612 335.505,151.626 337.020,151.782 339.000 " stroke="none" fill="#94585f" fill-rule="evenodd"></path><path id="SvgjsPath1000" d="M154.240 41.640 C 154.093 42.557,154.052 43.385,154.147 43.480 C 154.242 43.576,154.446 42.910,154.600 42.000 C 154.754 41.090,154.796 40.262,154.693 40.160 C 154.590 40.057,154.387 40.723,154.240 41.640 M153.301 51.000 C 153.305 51.880,153.387 52.193,153.483 51.695 C 153.579 51.198,153.575 50.478,153.475 50.095 C 153.375 49.713,153.296 50.120,153.301 51.000 M152.501 58.200 C 152.505 59.080,152.587 59.393,152.683 58.895 C 152.779 58.398,152.775 57.678,152.675 57.295 C 152.575 56.913,152.496 57.320,152.501 58.200 M151.714 66.200 C 151.717 67.300,151.795 67.703,151.887 67.095 C 151.979 66.486,151.977 65.586,151.882 65.095 C 151.787 64.603,151.711 65.100,151.714 66.200 M150.914 73.400 C 150.917 74.500,150.995 74.903,151.087 74.295 C 151.179 73.686,151.177 72.786,151.082 72.295 C 150.987 71.803,150.911 72.300,150.914 73.400 M150.114 80.600 C 150.117 81.700,150.195 82.103,150.287 81.495 C 150.379 80.886,150.377 79.986,150.282 79.495 C 150.187 79.003,150.111 79.500,150.114 80.600 M173.119 93.814 C 172.976 93.957,171.451 94.232,169.730 94.424 C 164.470 95.012,158.974 96.077,158.484 96.604 C 158.328 96.772,158.740 96.801,159.400 96.669 C 173.251 93.894,187.433 93.262,198.000 94.948 C 205.008 96.066,205.401 96.113,205.094 95.783 C 204.801 95.469,204.102 95.332,197.800 94.357 C 194.669 93.873,173.526 93.408,173.119 93.814 M206.200 96.294 C 227.660 101.685,243.325 110.221,257.931 124.485 C 271.012 137.258,281.471 154.981,285.836 171.767 C 286.231 173.289,286.632 174.303,286.726 174.021 C 286.820 173.739,286.673 172.763,286.400 171.854 C 286.126 170.944,285.629 169.300,285.295 168.200 C 283.001 160.636,277.670 149.136,273.950 143.728 C 273.318 142.808,272.800 141.863,272.800 141.628 C 272.800 141.393,272.620 141.200,272.400 141.200 C 272.180 141.200,272.000 141.029,272.000 140.820 C 272.000 137.659,253.875 118.975,245.200 113.193 C 243.770 112.240,242.510 111.356,242.400 111.229 C 242.290 111.102,241.210 110.389,240.000 109.644 C 231.180 104.219,221.055 99.794,211.600 97.233 C 210.610 96.965,209.247 96.578,208.572 96.373 C 207.896 96.168,206.906 96.021,206.372 96.046 C 205.543 96.086,205.518 96.122,206.200 96.294 M155.931 97.002 C 155.820 97.113,154.485 97.538,152.964 97.945 C 149.898 98.766,146.659 100.117,148.400 99.849 C 148.950 99.764,150.210 99.403,151.200 99.046 C 152.190 98.689,154.170 98.054,155.600 97.636 C 157.211 97.164,157.807 96.861,157.167 96.837 C 156.598 96.817,156.042 96.891,155.931 97.002 M143.400 101.243 C 139.812 102.755,133.175 106.063,130.600 107.624 C 129.500 108.290,128.285 108.938,127.900 109.064 C 127.515 109.190,127.200 109.430,127.200 109.598 C 127.200 109.766,126.660 110.127,126.000 110.400 C 125.340 110.673,124.800 111.055,124.800 111.249 C 124.800 111.442,124.575 111.602,124.300 111.605 C 124.025 111.608,123.350 111.963,122.800 112.393 C 122.250 112.823,119.910 114.643,117.600 116.438 C 112.413 120.469,103.055 129.846,99.674 134.400 C 98.286 136.270,96.715 138.340,96.182 139.000 C 95.650 139.660,95.211 140.343,95.207 140.517 C 95.203 140.691,94.840 141.220,94.400 141.692 C 93.960 142.164,93.600 142.787,93.600 143.075 C 93.600 143.364,93.441 143.600,93.247 143.600 C 93.052 143.600,92.790 143.915,92.664 144.300 C 92.538 144.685,91.888 145.900,91.219 147.000 C 87.257 153.517,80.742 169.226,81.303 170.910 C 81.387 171.160,81.948 169.752,82.552 167.782 C 83.155 165.812,83.998 163.437,84.425 162.504 C 84.851 161.572,85.200 160.624,85.200 160.399 C 85.200 160.174,85.372 159.677,85.581 159.295 C 85.791 158.913,86.851 156.710,87.937 154.400 C 98.109 132.757,116.162 114.690,137.938 104.358 C 142.527 102.181,143.065 101.946,145.200 101.176 C 145.970 100.899,146.771 100.521,146.980 100.336 C 147.721 99.681,146.182 100.071,143.400 101.243 M175.200 109.632 C 170.156 110.278,166.184 110.883,164.800 111.216 C 164.030 111.401,162.500 111.766,161.400 112.026 C 153.677 113.853,151.599 115.450,151.601 119.554 C 151.605 124.928,155.516 127.103,161.800 125.225 C 165.604 124.088,171.379 122.991,176.800 122.376 C 181.430 121.850,182.620 121.405,184.102 119.643 C 186.790 116.449,185.395 111.495,181.329 109.796 C 179.777 109.148,179.116 109.130,175.200 109.632 M182.696 111.119 C 187.844 114.021,184.562 121.147,177.800 121.746 C 172.817 122.188,167.304 123.105,164.200 124.009 C 163.320 124.265,162.013 124.568,161.296 124.681 C 160.579 124.795,159.894 125.049,159.773 125.244 C 159.426 125.806,156.641 125.659,155.341 125.010 C 149.642 122.167,151.177 115.268,157.894 113.537 C 158.612 113.352,159.875 113.006,160.700 112.770 C 164.545 111.667,169.034 110.896,174.337 110.426 C 176.612 110.224,178.556 109.977,178.656 109.877 C 178.887 109.646,181.518 110.455,182.696 111.119 M199.417 112.124 C 193.546 115.695,195.298 122.451,202.600 124.403 C 211.052 126.663,216.295 118.436,209.534 113.523 C 207.148 111.790,201.296 110.980,199.417 112.124 M205.572 112.452 C 210.606 114.047,211.600 115.079,211.600 118.711 C 211.600 122.620,208.272 125.316,204.625 124.362 C 198.822 122.843,198.362 122.583,197.232 120.180 C 194.830 115.069,199.671 110.583,205.572 112.452 M136.000 136.601 C 126.570 138.025,118.968 141.164,112.090 146.475 C 107.543 149.986,100.000 158.012,100.000 159.340 C 100.000 159.463,99.538 160.246,98.973 161.079 C 93.239 169.527,90.019 186.833,92.326 196.800 C 94.673 206.941,97.771 213.533,103.418 220.400 C 108.261 226.290,175.308 292.675,177.600 293.849 C 181.019 295.602,186.412 295.529,189.816 293.686 C 192.940 291.995,262.006 223.052,265.904 217.734 C 268.515 214.172,271.779 207.863,273.113 203.800 C 279.760 183.554,272.772 159.912,256.483 147.536 C 255.227 146.582,254.110 145.703,254.000 145.582 C 249.921 141.089,233.850 135.982,223.871 136.007 C 214.347 136.031,198.354 141.227,194.400 145.582 C 194.290 145.703,193.210 146.557,192.000 147.480 C 190.790 148.403,188.545 150.428,187.011 151.979 C 183.680 155.347,183.521 155.368,180.985 152.757 C 179.346 151.070,174.574 146.837,173.000 145.674 C 162.974 138.266,148.491 134.715,136.000 136.601 M151.123 137.211 C 152.155 137.438,153.900 137.814,155.000 138.048 C 163.405 139.836,171.824 144.619,179.383 151.900 C 184.059 156.404,183.265 156.442,188.365 151.476 C 195.529 144.499,203.813 139.832,212.200 138.048 C 213.300 137.814,215.045 137.438,216.077 137.211 C 218.508 136.679,229.892 136.679,232.323 137.211 C 233.355 137.438,235.100 137.814,236.200 138.049 C 238.717 138.584,240.887 139.269,241.380 139.682 C 241.589 139.857,242.055 140.000,242.416 140.000 C 243.533 140.000,250.709 143.855,253.934 146.187 C 264.810 154.054,271.256 164.170,274.460 178.400 C 275.185 181.617,275.052 194.284,274.259 197.600 C 273.175 202.130,272.930 202.930,271.646 206.124 C 267.550 216.310,268.553 215.170,227.561 256.204 C 204.712 279.076,190.712 292.802,189.897 293.130 C 189.184 293.417,188.287 293.821,187.905 294.026 C 187.003 294.512,180.197 294.512,179.295 294.026 C 178.913 293.821,178.013 293.416,177.296 293.127 C 175.206 292.284,103.455 220.165,101.033 216.473 C 98.771 213.024,95.614 206.888,95.606 205.924 C 95.603 205.552,95.420 205.136,95.200 205.000 C 94.980 204.864,94.800 204.324,94.800 203.800 C 94.800 203.276,94.641 202.749,94.446 202.629 C 94.251 202.508,93.975 201.823,93.831 201.105 C 93.687 200.387,93.368 198.900,93.122 197.800 C 92.550 195.242,92.536 180.045,93.104 177.400 C 93.340 176.300,93.741 174.680,93.994 173.800 C 94.248 172.920,94.555 171.792,94.676 171.294 C 94.797 170.796,95.054 170.290,95.248 170.170 C 95.441 170.051,95.600 169.664,95.600 169.311 C 95.600 168.050,99.766 160.379,102.221 157.119 C 108.125 149.280,117.985 141.943,125.800 139.574 C 126.680 139.307,127.760 138.948,128.200 138.775 C 129.067 138.434,130.204 138.178,133.586 137.561 C 134.788 137.341,135.853 137.081,135.952 136.981 C 136.318 136.616,149.305 136.813,151.123 137.211 M80.586 172.653 C 80.447 173.284,80.234 174.070,80.113 174.400 C 79.702 175.520,78.687 180.887,77.920 186.000 C 77.670 187.665,77.470 193.895,77.470 200.000 C 77.470 206.105,77.670 212.335,77.920 214.000 C 79.019 221.324,80.413 227.769,81.020 228.332 C 81.340 228.629,81.267 228.213,80.076 223.000 C 76.679 208.129,76.824 190.256,80.465 175.270 C 80.910 173.439,81.176 171.843,81.057 171.723 C 80.937 171.604,80.725 172.022,80.586 172.653 M286.834 175.400 C 286.872 176.766,287.538 178.042,287.566 176.800 C 287.578 176.250,287.413 175.530,287.200 175.200 C 286.880 174.705,286.816 174.740,286.834 175.400 M287.752 179.800 C 287.897 180.680,288.319 183.200,288.689 185.400 C 289.666 191.208,289.644 208.929,288.653 214.800 C 287.615 220.948,287.457 222.230,287.774 221.937 C 288.073 221.662,288.476 219.411,289.304 213.400 C 289.954 208.685,289.952 191.296,289.301 186.600 C 288.436 180.358,288.154 178.820,287.816 178.506 C 287.635 178.338,287.606 178.920,287.752 179.800 M301.777 186.437 C 301.629 186.677,301.735 189.239,302.012 192.130 C 302.361 195.754,302.418 199.312,302.196 203.593 C 302.019 207.007,301.858 210.700,301.837 211.800 L 301.800 213.800 305.200 213.925 C 314.410 214.263,319.949 210.816,322.366 203.240 C 324.057 197.940,320.397 190.179,315.013 187.648 C 311.865 186.168,302.474 185.309,301.777 186.437 M287.041 223.600 C 286.055 228.083,284.135 234.279,282.361 238.700 C 282.162 239.195,281.844 240.005,281.653 240.500 C 276.726 253.273,265.825 268.690,254.566 278.807 C 246.435 286.114,226.811 298.400,223.271 298.400 C 223.006 298.400,222.477 298.559,222.095 298.753 C 220.631 299.498,219.281 300.014,215.800 301.162 C 213.820 301.815,212.480 302.361,212.821 302.375 C 215.211 302.472,230.310 296.149,236.422 292.491 C 237.425 291.891,239.135 290.869,240.222 290.219 C 241.310 289.570,242.290 288.940,242.400 288.819 C 242.510 288.699,242.894 288.420,243.252 288.200 C 249.694 284.250,261.730 273.140,266.881 266.389 C 271.085 260.882,272.000 259.595,272.000 259.197 C 272.000 258.978,272.158 258.800,272.351 258.800 C 272.545 258.800,272.927 258.260,273.200 257.600 C 273.473 256.940,273.834 256.400,274.002 256.400 C 274.170 256.400,274.410 256.085,274.536 255.700 C 274.662 255.315,275.309 254.100,275.975 253.000 C 277.535 250.422,281.287 242.833,282.402 240.000 C 283.643 236.847,285.574 231.238,285.982 229.600 C 286.173 228.830,286.623 227.131,286.980 225.824 C 287.337 224.517,287.566 223.167,287.489 222.824 C 287.412 222.481,287.210 222.830,287.041 223.600 M81.200 229.316 C 81.200 231.713,89.167 250.902,90.784 252.400 C 91.172 252.760,92.444 254.984,92.671 255.700 C 92.793 256.085,93.052 256.400,93.247 256.400 C 93.441 256.400,93.600 256.636,93.600 256.925 C 93.600 257.213,93.960 257.836,94.400 258.308 C 94.840 258.780,95.200 259.320,95.200 259.508 C 95.200 259.696,95.515 260.198,95.900 260.625 C 96.285 261.051,97.109 262.149,97.730 263.065 C 102.987 270.809,114.407 281.886,123.138 287.708 C 125.042 288.978,126.780 290.157,127.000 290.328 C 127.220 290.500,128.210 291.081,129.200 291.620 C 130.190 292.159,131.090 292.692,131.200 292.805 C 131.310 292.918,132.300 293.458,133.400 294.005 C 134.500 294.552,135.460 295.135,135.533 295.300 C 135.607 295.465,135.835 295.600,136.041 295.600 C 136.248 295.600,137.898 296.297,139.708 297.150 C 145.777 300.008,159.006 304.265,160.714 303.911 C 161.091 303.833,159.780 303.360,157.800 302.860 C 151.999 301.396,151.146 301.129,145.394 298.978 C 123.201 290.680,102.978 273.051,90.814 251.400 C 88.805 247.824,85.200 240.232,85.200 239.577 C 85.200 239.364,85.041 238.877,84.847 238.495 C 84.080 236.987,83.592 235.659,82.570 232.300 C 81.553 228.954,81.200 228.186,81.200 229.316 M208.200 303.136 C 206.880 303.482,206.081 303.824,206.424 303.897 C 207.062 304.032,211.555 302.979,211.927 302.606 C 212.277 302.256,210.713 302.479,208.200 303.136 M161.706 304.217 C 162.011 304.544,163.338 304.795,169.400 305.673 C 173.763 306.305,193.751 306.318,197.600 305.691 C 199.250 305.422,201.652 305.035,202.937 304.831 C 204.223 304.626,205.378 304.356,205.504 304.229 C 205.901 303.833,204.624 303.974,199.740 304.866 C 193.423 306.019,175.368 306.162,169.000 305.108 C 162.104 303.967,161.392 303.880,161.706 304.217 M162.900 317.476 C 163.285 317.576,163.915 317.576,164.300 317.476 C 164.685 317.375,164.370 317.293,163.600 317.293 C 162.830 317.293,162.515 317.375,162.900 317.476 M150.109 319.200 C 150.109 320.190,150.187 320.595,150.282 320.100 C 150.378 319.605,150.378 318.795,150.282 318.300 C 150.187 317.805,150.109 318.210,150.109 319.200 M150.920 326.400 C 150.920 327.610,150.995 328.105,151.087 327.500 C 151.178 326.895,151.178 325.905,151.087 325.300 C 150.995 324.695,150.920 325.190,150.920 326.400 M151.714 333.800 C 151.717 334.900,151.795 335.303,151.887 334.695 C 151.979 334.086,151.977 333.186,151.882 332.695 C 151.787 332.203,151.711 332.700,151.714 333.800 M152.447 341.833 C 152.473 342.695,152.639 343.940,152.815 344.600 C 153.018 345.356,153.054 344.838,152.915 343.200 C 152.667 340.286,152.375 339.431,152.447 341.833 M153.301 349.000 C 153.305 349.880,153.387 350.193,153.483 349.695 C 153.579 349.198,153.575 348.478,153.475 348.095 C 153.375 347.713,153.296 348.120,153.301 349.000 M154.087 357.000 C 154.091 357.440,154.232 358.340,154.400 359.000 C 154.674 360.078,154.706 360.098,154.713 359.200 C 154.717 358.650,154.576 357.750,154.400 357.200 C 154.149 356.416,154.081 356.373,154.087 357.000 " stroke="none" fill="#8a7c8a" fill-rule="evenodd"></path></g></svg><style>@media (prefers-color-scheme: light) { :root { filter: none; } }
</style></svg>